# xmcd
#
# Track frame offsets: 
#        150
#        20608
#        41986
#        61838
#        82704
#        106941
#        123044
#        138554
#        164305
#        195819
#        219126
#        242990
#        265876
#        288275
#        314255
#
# Disc length: 4492 seconds
#
# Revision: 0
# Processed by: cddbd v1.5.2PL0 Copyright (c) Steve Scherf et al.
# Submitted via: ExactAudioCopy v1.0b3
#
DISCID=c4118a0f
DTITLE=Buddy Guy - The Greatest Hits - Silverstone Years
DYEAR=2011
DGENRE=Blues
TTITLE0=Damn Right, I've Got The Blues
TTITLE1=Mustang Sally
TTITLE2=Someone Else Is Steppin' In (Slippin' Out, Slippin' In)
TTITLE3=Feels Like Rain
TTITLE4=Midnight Train
TTITLE5=Sufferin' Mind
TTITLE6=I Just Want To Make Love To You
TTITLE7=Hoochie Coochie Man
TTITLE8=First Time I Met The Blues
TTITLE9=Let Me Love You Baby
TTITLE10=Crawlin' Kingsnake
TTITLE11=Now You're Gone
TTITLE12=Best Damn Fool
TTITLE13=Thank Me Someday
TTITLE14=Stay Around A Little Longer
EXTD=
EXTT0=
EXTT1=
EXTT2=
EXTT3=
EXTT4=
EXTT5=
EXTT6=
EXTT7=
EXTT8=
EXTT9=
EXTT10=
EXTT11=
EXTT12=
EXTT13=
EXTT14=
PLAYORDER=
